<?xml version="1.0" encoding="utf-8"?>
<!-- Generator: Adobe Illustrator 19.1.0, SVG Export Plug-In . SVG Version: 6.00 Build 0)  -->
<svg version="1.1" id="Isolation_Mode" xmlns="http://www.w3.org/2000/svg" xmlns:xlink="http://www.w3.org/1999/xlink" x="0px"
	 y="0px" width="190px" height="55.3px" viewBox="0 0 190 55.3" style="enable-background:new 0 0 190 55.3;" xml:space="preserve">
<style type="text/css">
	.st0{fill:#000;}
	.st1{display:none;clip-path:url(#SVGID_2_);}
	.st2{display:inline;}
	.st3{fill-rule:evenodd;clip-rule:evenodd;fill:#000;}
</style>
<g>
	<g>
		<path class="st0" d="M27.9,25.9c0.3,0,0.8-0.1,1-0.1c0-1.9,0-3.8,0-5.7c-0.4,0-0.8,0-0.9,0.2C27.9,22.3,27.9,24.1,27.9,25.9z"/>
		<path class="st0" d="M28.1,4.9c0.2,0,0.4-0.1,0.6-0.1c0-0.5,0-0.9-0.1-1.4c-0.2,0-0.4,0.1-0.6,0.2C28.1,4,28.1,4.5,28.1,4.9z"/>
		<path class="st0" d="M25.4,41.5c0.1,0,0.2,0,0.3-0.1c0.1-1,0.3-2,0.4-3c-0.2,0-0.4,0.1-0.5,0.1C25.6,39.6,25.5,40.6,25.4,41.5z"/>
		<path class="st0" d="M28,26.9c0,1.6,0,3.3,0,4.9c0.3,0,0.6,0,0.9,0c0-1.7,0-3.3,0-5C28.6,26.8,28.2,26.8,28,26.9z"/>
		<path class="st0" d="M28.7,2.3c0-0.3-0.4-0.2-0.4,0.1c0,0.2,0,0.5,0,0.7c0.1,0,0.3-0.1,0.4-0.1C28.7,2.8,28.7,2.5,28.7,2.3z"/>
		<path class="st0" d="M29,19.8c0-2.6,0-5.2,0-7.8c-0.3-0.1-0.7,0-0.8,0.2c0,2.6-0.1,5.1-0.1,7.6C28.4,19.8,28.7,19.8,29,19.8z"/>
		<polygon class="st0" points="25.8,37.7 26.3,37.6 26.5,34 26,34.1 		"/>
		<path class="st0" d="M26.8,26.2c0.1,0,0.1-0.1,0.2-0.1c0.1-1.9,0.2-3.8,0.3-5.6c-0.1,0.1-0.2,0.3-0.3,0.4
			C27,22.6,26.8,24.4,26.8,26.2z"/>
		<path class="st0" d="M26.5,32.1c0.1,0,0.1,0,0.2-0.1c0.1-1.7,0.2-3.5,0.3-5.1c-0.2,0.1-0.3,0.1-0.5,0.2
			C26.5,28.8,26.4,30.5,26.5,32.1z"/>
		<path class="st0" d="M27.7,12.7c-0.2,0-0.4,0.1-0.5,0.3c0,2.4,0,4.5,0,6.9c0.2,0,0.4,0,0.6,0C27.7,17.5,27.7,15,27.7,12.7z"/>
		<path class="st0" d="M29.7,38.7c0,0.9,0,1.7,0.1,2.6c0.2,0,0.3,0,0.5,0c0-0.9,0-1.7,0-2.6C30,38.7,29.8,38.7,29.7,38.7z"/>
		<path class="st0" d="M30.1,27c-0.2-0.1-0.4-0.1-0.7-0.1c0,1.6,0,3.3,0,5c0.2,0.1,0.4,0.1,0.7,0.2C30.1,30.3,30.1,28.6,30.1,27z"/>
		<polygon class="st0" points="30.2,34 29.5,33.9 29.6,37.4 30.2,37.5 		"/>
		<polygon class="st0" points="27.9,37.4 28.8,37.3 28.8,33.8 27.9,33.8 		"/>
		<path class="st0" d="M29.2,0C13.1,0,0,13.1,0,29.2c0,11.5,6.6,21.4,16.2,26.1h1.2C7.4,50.8,0.5,40.8,0.5,29.2
			c0-15.8,12.8-28.7,28.7-28.7c0.2,0,0.3,0,0.5,0l0,0c0.5,0.4,0.7,0.9,0.7,1.4c0.1,1,0.2,2.2,0.3,3.2c0,0.1,0,0.1,0.1,0.2
			c0.2,0.3,0.5,0.6,0.7,0.9c0,0.5,0,1.1,0,1.6c-0.3,0.1-0.3,0.3-0.4,0.6c0,0.6,0,1.2,0,1.8c0,0.2,0.1,0.3,0.2,0.3
			c0.4,0.2,0.8,0.6,1.1,1.1c0,0.6,0,1.2,0,1.8c-0.8,0.5-1.1,1.1-0.9,1.8c-0.3,0-0.3,0.1-0.3,0.3c0,0.2,0,0.4,0,0.6
			c0.2,2.5,0.4,5.2,0.7,7.9c0.5,5.9,0.9,12.1,2.5,17.8c0,0.1,0.1,0.1,0.3,0.1c0.4,0,0.8,0,1.2,0.1c0.9,0.2,1.6,0.6,2.1,1.3
			c0.1,0.1,0.2,0.2,0.2,0.3c0.1,0,0.5-0.1,0.9-0.1c1.1-0.2,2.5-0.4,2.2,1.1c-0.1,0.2,0.1,0.4,0.1,0.7c-0.8,0.7-1.7,1.4-2.5,2
			c-0.5,0.1-0.9,0-1.1,0.4c-0.6,1.2-0.6,2.3-0.1,3.1c0.8,1.5,2.3,3.1,3.7,4.1c-0.2,0.1-0.4,0.2-0.6,0.3h1.2
			c9.6-4.8,16.2-14.7,16.2-26.1C58.3,13.1,45.3,0,29.2,0z M41.9,54.8c-1.6-1.2-4-3.5-4-5.4c0-0.4,0.2-0.9,0.4-1.4
			c0-0.1,0.1-0.2,0.2-0.2c0.3,0,0.5-0.1,0.8-0.1c0.7-0.6,1.6-1.1,2.3-1.8c0.3-0.3,0.4-0.4,0.4-0.6c0-0.3-0.1-0.3-0.1-0.5
			c0-0.1,0-0.1,0-0.3c0.2-1.6-1.1-1.7-3.1-1.3c-0.3,0.1-0.2,0.1-0.4-0.2c-0.9-1.1-2.1-1.5-3.5-1.5c-1.9-6.5-2.2-16.7-3.2-26
			c-0.1-0.3,0.4-0.1,0.3-0.3c-0.3-1,0.2-1.3,0.6-1.6c0.2-0.1,0.2-0.1,0.2-0.4c0-0.6,0-1.7,0-1.9c-0.4-0.7-0.9-0.9-1.4-1.4
			c0-0.5,0-1.1,0-1.6c0-0.1,0-0.2,0.1-0.3C31.9,7.9,32,8,32,7.8c0-0.5,0-1,0-1.6c0-0.2-0.1-0.3-0.3-0.5c-0.2-0.3-0.4-0.5-0.5-0.7
			C31,4,30.9,2.9,30.8,1.8c-0.1-0.5-0.3-1-0.6-1.3c15.4,0.5,27.6,13.2,27.6,28.6C57.8,40.4,51.4,50.1,41.9,54.8z"/>
		<path class="st0" d="M29.3,4.8c0.2,0,0.4,0.1,0.5,0.1c0-0.4,0-0.7,0.1-1.1c0-0.1-0.3-0.3-0.6-0.4C29.3,3.9,29.3,4.3,29.3,4.8z"/>
		<path class="st0" d="M27.8,41.2c0.3,0,0.7,0,1,0c0-0.9,0-1.8,0-2.7c-0.4-0.1-0.7,0-1.1,0C27.8,39.4,27.8,40.3,27.8,41.2z"/>
		<path class="st0" d="M29.2,19.9c0.3,0,0.5,0,0.8,0c0-2.5,0-4.9,0-7.4c-0.2-0.2-0.5-0.3-0.8-0.2C29.2,14.7,29.2,17.3,29.2,19.9z"/>
		<path class="st0" d="M30.2,26c0-1.9,0-3.7,0-5.6c-0.3-0.2-0.5-0.2-0.8-0.2c0,1.9,0,3.8,0,5.7C29.7,25.9,29.9,26,30.2,26z"/>
		<path class="st0" d="M29.6,2.3c0,0-0.1,0-0.2,0c0,0.3,0,0.5,0,0.8c0.1,0.1,0.2,0.1,0.4,0.2c0-0.2,0-0.5-0.1-0.7
			C29.7,2.4,29.7,2.3,29.6,2.3z"/>
	</g>
	<g>
		<defs>
			<path id="SVGID_1_" d="M53.9,41.7c-0.5,1-1.1,2-1.7,3c-1.9,0.8-5.1,2.1-9.2,0.5c-5.2-2-11.4-5.7-16.8-5.6
				c-4-0.1-7.5,0.9-10.9,2.6c-2.4,1.3-4.5,3.2-6.4,5.8l0,0c0.4-0.6,0.8-1.1,1.2-1.7c4.1-5,9.7-7.5,16.5-7.4c5.6,0,11.6,3.2,16.3,4.8
				C46.9,45.1,50.6,44,53.9,41.7L53.9,41.7z M44.1,52.5c-2.1-0.5-4-1.1-5.8-1.9c-3.9-1.8-7.8-3.4-12.2-3.3c1.1,0.1,2.2,0.2,3.3,0.4
				c4.6,0.9,9,4,13.6,5.5C43.3,53,43.7,52.8,44.1,52.5L44.1,52.5z M46.3,51c-4.8-0.2-9.3-3.1-14.1-4.6c-3-1-5.4-1.2-8.6-0.7
				c2.2-0.2,4.3-0.1,6.4,0.4c3.3,0.8,6,2.4,9.1,3.7c1.8,0.8,3.6,1.5,6,2C45.5,51.6,45.9,51.3,46.3,51L46.3,51z M48.8,48.7
				c-2.5,0.6-4.7,0.3-6.7-0.4c-7.8-2.7-13.8-7.3-22.7-3.5c3.8-1.4,6.9-1.4,10.7-0.4c6.6,1.7,10.2,5.8,17.2,5.7
				C47.9,49.6,48.3,49.2,48.8,48.7L48.8,48.7z M44.4,46.6c1.6,0.4,3.9,0.1,7.3-1.2c-0.6,0.8-1.2,1.5-1.8,2.2c-3.3,1.2-7-0.1-10-1.4
				c-3.6-1.6-6.7-3.4-10.7-4.1c-5.7-1.1-10.8,0.3-15.4,3.8c3.7-3.2,8.1-5.1,13.7-4.6C33.6,41.5,38.8,45.3,44.4,46.6L44.4,46.6z"/>
		</defs>
		<use xlink:href="#SVGID_1_"  style="overflow:visible;fill-rule:evenodd;clip-rule:evenodd;fill:#FFFFFF;"/>
		<clipPath id="SVGID_2_">
			<use xlink:href="#SVGID_1_"  style="overflow:visible;"/>
		</clipPath>
		<g class="st1">
			<defs>
				<rect id="SVGID_3_" x="8.9" y="38.8" width="45" height="14.4"/>
			</defs>
			<use xlink:href="#SVGID_3_"  style="display:inline;overflow:visible;fill:#FFFFFF;"/>
			<clipPath id="SVGID_4_" class="st2">
				<use xlink:href="#SVGID_3_"  style="overflow:visible;"/>
			</clipPath>
			<g style="display:inline;clip-path:url(#SVGID_4_);">
				
					<image style="overflow:visible;" width="240" height="78" xlink:href="56A9EE2A.png"  transform="matrix(0.1934 0 0 -0.1934 8.4462 53.6693)">
				</image>
			</g>
		</g>
	</g>
	<path class="st3" d="M40.2,55c-1.1-1.1-2.2-2.6-3.1-3.7c-0.2-0.3-0.6-0.7-0.9-0.8c-0.3-0.1-0.5,0-0.7,0.3c-1.1-2.8,0.3-5.1,2.6-6.2
		l0,0c0.5-0.1,1.6-0.4,2.1-0.4c1.2,0,1.3,1,0.7,1.4c-0.5,0.4-1,0.8-1.5,1.1c-0.2,0.2-0.2,0.2-0.5,0.2c-0.6,0-0.7-0.1-1.1,0.5
		c-0.9,1.6-0.6,2.4-0.5,3.2c0.4,0.9,0.8,1.7,1.4,2.5c0.3,0.4,1.2,1.4,1.9,1.9H40.2L40.2,55z M26.4,7.6c0-0.4,0-0.8,0-1.1
		c0-0.3,0.1-0.5,0.2-0.6c0.2-0.2,0.5-0.4,0.8-0.6c0,0,0-0.1,0-0.2c0-0.9,0.1-1.7,0.1-2.6c0-0.2,0-0.4,0.2-0.6c0-0.2,0-0.3,0.1-0.4
		C28-0.1,29.9,0,30,1.5c0.1,0.2,0.1,0.3,0.1,0.5c0.1,0.1,0.2,0.3,0.2,0.5c0.1,0.9,0.1,1.8,0.2,2.8c0.5,0.2,0.8,0.6,0.9,1.2
		c0,0.4,0,0.9-0.1,1.3c-0.2,0-0.3,0.2-0.3,0.6l0,2.1c0.1,0,0.1,0.1,0.2,0.1c0.6,0.3,1.3,1.1,1.3,1.8c0,0.4-0.1,0.8-0.1,1.2
		c-0.8,0.4-1,1-0.8,1.8c-0.1,0-0.2,0-0.2,0c-0.1,0.2,0,0.9,0,1.1c0.1,1.4,0.2,2.9,0.3,4.4l0,0l0,0v0v0v0v0v0v0v0v0l0,0v0v0v0v0v0v0
		v0v0v0l0,0v0v0v0v0v0v0v0v0v0l0,0v0v0l0,0v0v0v0l0,0v0v0v0v0v0v0v0v0v0v0l0,0v0v0v0v0v0v0v0v0v0l0,0v0v0v0v0v0l0,0
		c0.1,1.6,0.3,3.2,0.5,4.9c0.6,5.8,0.8,10.7,2.2,16.5c0.7,0,1.5,0,2.3,0.3c0.7,0.3,1.2,0.7,1.5,1.3c0.7-0.1,1.3-0.2,2-0.3
		c1-0.1,1.9,1.2,0.9,2.1c-0.8,0.6-2,1.4-2.2,1.5c-0.3,0-0.6,0-0.8,0.2c-1,1.7-0.8,3.1,0.3,4.7c0.6,0.9,1.9,2.4,2.8,2.6l0.9,0.1v0.4
		l-26,0v0l0,0V55l0,0l0,0l0,0c0.5-0.2,1-0.3,2-1.4c0.7-0.7,1.3-1.5,1.8-2.4c0.4-0.8,0.6-1.6,0.3-2.5c-0.6-1.9-2.9-1.9-3.5-2.3
		c-0.8-0.5-1.6-2.3,0.3-1.7c0.1-2,2.7-1.9,5.1-1.2c0.1-0.1,0.3-0.2,0.4-0.2c0.3-1.3,1.4-3.2,1.6-4.4c0.8-4.4,1.1-8.4,1.5-13.1
		c0.1-1.4,0.3-3,0.5-4.5c0.2-2,0.3-3.2,0.4-6.3h-0.3c0.1-0.8-0.1-1.4-0.8-1.7c0-0.3,0-0.7-0.1-1c0-0.3-0.1-0.6,0.1-1
		c0.3-0.5,0.7-0.9,1.3-1.1l0-2.3C26.7,7.8,26.6,7.6,26.4,7.6L26.4,7.6z M29.4,19.9C29.4,19.9,29.4,19.9,29.4,19.9c0,2,0,4,0,6
		c0.5,0.1,1.1,0.2,1.7,0.5c-0.1-2-0.3-4-0.4-6C30.3,20.1,29.8,20,29.4,19.9L29.4,19.9z M29.1,19.9c-0.5,0-0.9,0-1.4,0.1l0,0
		c0,0,0,0,0,0c-0.1,2-0.3,4-0.4,6.1c0.6-0.2,1.2-0.3,1.8-0.3C29.1,23.9,29.1,21.9,29.1,19.9L29.1,19.9z M27.3,19.8
		c0.1,0,0.1,0,0.2-0.1v0h0c0-2.1,0.1-4.6,0.1-6.6c0-0.5-0.1-0.7-0.4-1.3c-0.3,0.1-0.6,0.3-0.8,0.5l0.9,0.5L27.3,19.8L27.3,19.8
		L27.3,19.8z M28.8,19.5l0.1-7.6l0.3-0.5c-0.5,0-1,0-1.5,0.2l0.5,0.5l0,7.4C28.4,19.5,28.6,19.5,28.8,19.5L28.8,19.5z M29.3,19.5
		C29.4,19.5,29.4,19.5,29.3,19.5L29.3,19.5c0.3,0,0.5,0.1,0.7,0.1l0,0l0-7.3l0.8-0.5c-0.4-0.2-0.8-0.3-1.2-0.4l-0.3,2.1V19.5
		L29.3,19.5z M30.6,19.9L30.6,19.9l-0.1-5.8c0-1.2-0.1-1.2,0.5-2.1c0,0,0,0,0,0l-0.8,0.5l0,7.3C30.4,19.8,30.5,19.9,30.6,19.9
		L30.6,19.9z M31,20.1c0.1,0.1,0.2,0.1,0.3,0.2l0,0c-0.1-1.3-0.2-2.7-0.3-4c0-0.4,0-0.9,0-1.2c0-0.2,0.1-0.4,0.2-0.4
		c-0.1-0.8,0.2-1.3,0.8-1.6l0-0.1l-1,0.1l-0.1,0.5c0,0.1,0,0.2,0,0.3C30.9,16,30.9,18,31,20.1L31,20.1L31,20.1L31,20.1L31,20.1z
		 M31.3,20.7c-0.1-0.1-0.2-0.1-0.3-0.2c0.1,2,0.3,4,0.5,6c0.2,0.1,0.3,0.2,0.5,0.3c0-0.3-0.1-0.7-0.1-1
		C31.6,24.1,31.4,22.4,31.3,20.7L31.3,20.7z M27.4,20.1c-0.3,0.1-0.6,0.2-0.9,0.4c-0.1,1.7-0.4,3.6-0.6,5.3c0,0.3-0.1,0.6-0.1,0.9
		c0.4-0.2,0.8-0.4,1.2-0.5C27.1,24.1,27.2,22.1,27.4,20.1L27.4,20.1z M34.1,42.4c-0.3-0.1-0.6-0.2-0.9-0.3c0,0.1,0.1,0.3,0.1,0.4
		C33.5,42.5,33.8,42.4,34.1,42.4L34.1,42.4z M32.9,42.6c0-0.2-0.1-0.4-0.1-0.6c-1-0.3-2.1-0.4-3.1-0.5c0,0.4,0,0.9,0,1.3
		c0.3,0.1,0.6,0.2,0.9,0.3C31.4,43,32.2,42.8,32.9,42.6L32.9,42.6z M29.4,42.7c0-0.4,0-0.8,0-1.3c-1.1,0-2.2,0-3.4,0.2
		c0,0.2-0.1,0.3-0.1,0.5C27,42.2,28.2,42.3,29.4,42.7L29.4,42.7z M25.6,42.3c0-0.2,0.1-0.3,0.1-0.5c-0.9,0.2-1.7,0.4-2.6,0.7
		c-0.1,0.2-0.2,0.4-0.2,0.6C23.8,42.6,24.7,42.4,25.6,42.3L25.6,42.3z M23.2,42.1c0.8-0.2,1.7-0.4,2.5-0.6c0.2-1.1,0.4-2.1,0.5-3.2
		c-0.6,0.1-1.1,0.3-1.8,0.5c0,0.1,0,0.1,0,0.2C24.3,39.8,23.7,41,23.2,42.1L23.2,42.1z M26.1,41.5c1.1-0.2,2.2-0.3,3.3-0.2
		c0-1.1-0.1-2.1-0.1-3.2c-1-0.1-1.9,0-2.8,0.2C26.4,39.3,26.3,40.4,26.1,41.5L26.1,41.5z M29.7,41.2c1,0,2,0.2,3,0.4
		c-0.2-1.1-0.4-2.1-0.6-3.2c-1-0.2-1.8-0.4-2.6-0.4C29.6,39.1,29.6,40.2,29.7,41.2L29.7,41.2z M33.1,41.8c0.3,0.1,0.6,0.2,0.9,0.3
		c-0.3-1.1-0.5-2.2-0.7-3.3c-0.3-0.1-0.5-0.1-0.8-0.2C32.7,39.6,32.9,40.7,33.1,41.8L33.1,41.8z M24.5,38.4c0.6-0.2,1.2-0.3,1.7-0.4
		c0-0.1,0-0.1,0-0.2c-0.5,0.1-1.1,0.3-1.7,0.4C24.5,38.3,24.5,38.4,24.5,38.4L24.5,38.4z M26.5,38c1-0.2,1.8-0.2,2.8-0.2v-0.2
		c-1-0.1-1.8,0-2.8,0.2C26.5,37.8,26.5,37.9,26.5,38L26.5,38z M29.6,37.8c0.8,0.1,1.6,0.2,2.5,0.4c0-0.1,0-0.1,0-0.2
		c-0.9-0.2-1.8-0.3-2.5-0.4L29.6,37.8L29.6,37.8z M32.5,38.3c0.2,0.1,0.5,0.1,0.7,0.2c0,0,0-0.1,0-0.1c-0.3-0.1-0.5-0.1-0.7-0.2
		C32.5,38.2,32.5,38.2,32.5,38.3L32.5,38.3z M32.6,34.2C32.4,34.1,32.2,34,32,34c0.1,1.3,0.2,2.6,0.4,3.8c0.2,0.1,0.5,0.1,0.7,0.2
		C32.9,36.7,32.8,35.4,32.6,34.2L32.6,34.2z M32,37.7c-0.2-1.3-0.3-2.6-0.4-3.9c-0.7-0.2-1.5-0.4-2.1-0.5c0,1.3,0.1,2.6,0.1,4
		C30.3,37.4,31.1,37.5,32,37.7L32,37.7z M29.3,37.3c0-1.3-0.1-2.6-0.1-4c-0.8-0.1-1.6,0-2.4,0.2c-0.1,1.3-0.1,2.6-0.3,4
		C27.5,37.3,28.4,37.3,29.3,37.3L29.3,37.3z M26.3,37.6c0.1-1.3,0.2-2.6,0.3-3.9c-0.5,0.1-1,0.3-1.5,0.5c-0.1,1.3-0.3,2.5-0.5,3.8
		C25.2,37.8,25.8,37.7,26.3,37.6L26.3,37.6z M25.1,33.8c0.5-0.2,1-0.4,1.5-0.5c0-0.3,0-0.6,0.1-0.9c-0.4,0.1-0.9,0.3-1.4,0.5
		C25.2,33.2,25.2,33.5,25.1,33.8L25.1,33.8z M26.8,33.3c0.7-0.2,1.5-0.3,2.4-0.2c0-0.3,0-0.6,0-1c-0.7,0-1.5,0.1-2.3,0.2
		C26.9,32.6,26.9,33,26.8,33.3L26.8,33.3z M29.5,33.1c0.7,0.1,1.4,0.2,2.1,0.4c0-0.3-0.1-0.6-0.1-0.9c-0.7-0.2-1.3-0.4-2-0.5
		C29.5,32.4,29.5,32.8,29.5,33.1L29.5,33.1z M32,33.6c0.2,0.1,0.4,0.2,0.6,0.2c0-0.3-0.1-0.6-0.1-0.9c-0.2-0.1-0.4-0.2-0.6-0.3
		C31.9,33,31.9,33.3,32,33.6L32,33.6z M32,27.1c-0.2-0.1-0.3-0.2-0.5-0.3c0.1,0.9,0.2,1.9,0.2,2.8c0.1,0.9,0.1,1.8,0.2,2.7
		c0.2,0.1,0.4,0.2,0.6,0.3C32.3,30.9,32.1,29,32,27.1L32,27.1z M31.5,32.3c-0.1-0.9-0.1-1.7-0.2-2.6c-0.1-1-0.1-2-0.2-2.9
		c-0.6-0.3-1.2-0.5-1.7-0.5c0,1.9,0,3.8,0.1,5.6C30.1,31.9,30.8,32,31.5,32.3L31.5,32.3z M29.2,31.8c0-1.9-0.1-3.8-0.1-5.6
		c-0.6,0-1.2,0.1-1.9,0.3c-0.1,1.9-0.2,3.7-0.3,5.6C27.6,31.8,28.4,31.7,29.2,31.8L29.2,31.8z M26.6,32.1c0.1-1.8,0.2-3.7,0.3-5.5
		c-0.4,0.1-0.8,0.3-1.2,0.5c-0.2,1.9-0.3,3.7-0.5,5.5C25.7,32.4,26.2,32.2,26.6,32.1L26.6,32.1z M29.3,55c-0.1-0.9-0.1-1.9-0.2-2.6
		c-0.1-1.6-1.4-2-2.5-1.8c-1.2,0.2-1.5,0.9-1.9,1.8c-0.4,1-0.8,1.7-1.3,2.7H29.3L29.3,55z M23.1,55c0.6-1.1,0.8-1.6,1.3-2.7
		c0.5-1.1,0.9-1.8,2.2-2c1.3-0.2,2.7,0.2,2.9,2c0.1,0.9,0.2,1.8,0.3,2.7h0.7c-1.1-3.8-0.9-7.6-0.1-11.3c-1.3-0.5-2.7-0.9-4.3-0.9
		c-1.5,0.1-2.7,0.5-3.6,1.2c1.5,1,2.1,2.5,2.2,4.4c0,3.2-1.4,5-2.8,6.7H23.1L23.1,55z M37.9,44.3c-1.5,0.6-2.6,1.3-3.1,2.8
		c-0.4,1.2-0.5,2.6,0.4,4.6c0.4,0.9,1.1,2,2,3.3H37c-1.1-1.5-1.7-3-2.5-3.7c-1.5-1.5-4.1-1.5-3.9,0.9c-0.6-3.6-0.2-6,0.1-8.6
		c1.6-0.5,3.3-0.8,5.1-0.6C36.7,43.2,37.3,43.5,37.9,44.3L37.9,44.3z M22.1,44.1c2.2,1.6,2.3,4.7,1.4,7c-0.2-0.5-0.6-0.8-1.3-0.5
		c-0.6,0.2-1.1,0.7-1.6,1.3c0.3-0.9,0.9-2.6,0.1-4.5c-0.6-1.2-2-1.8-3.4-2.2c0-0.3,0-0.5,0.1-0.7c0.2-0.6,0.7-0.7,1.3-0.8
		C19.6,43.5,20.8,43.7,22.1,44.1L22.1,44.1L22.1,44.1z M17.3,45.4c0.9,0.3,1.8,0.6,2.5,1.5c0.4,0.5,0.7,1.1,0.8,1.8c0,0,0-0.1,0-0.1
		c-1-2.6-3-1.8-3.8-2.6c-0.2-0.2-0.4-0.6-0.5-0.9C16.3,45,16.8,45.2,17.3,45.4L17.3,45.4L17.3,45.4z M20.1,51.5
		c-0.5,1.3-1.3,2.5-2.1,3.4h-1C18.2,54.1,19.3,52.9,20.1,51.5L20.1,51.5z M37.5,55c-0.8-1.1-1.6-2.2-2.3-3.6
		c-0.8-1.8-0.8-4.3,0.5-5.6c-1.1,1.7-1.1,3.5-0.5,5c0.5,1.4,1.6,3.1,2.6,4.1H37.5L37.5,55z M38.2,55c-0.5-0.5-1.1-1.3-1.5-2
		c-0.5-0.8-0.9-1.5-1-1.9c0-0.2,0-0.4,0.2-0.4c0.4-0.1,1.4,1.3,1.6,1.6c0.8,1,1.8,2.2,2.3,2.7H38.2L38.2,55z M18.7,55h2.2
		c0.8-0.7,1.5-1.5,2-2.5c0.3-0.5,0.5-0.9,0.3-1.4c-0.3-0.6-1-0.3-1.5,0.1C20.6,52,19.7,53.7,18.7,55L18.7,55z M21.3,55L21.3,55
		c1-1,1.6-1.5,2.2-2.9c0.1-0.2,0.2-0.4,0.3-0.6c0.3-0.7,0.4-1.2,0.5-2c-0.1,0.7-0.4,1.4-0.6,2h0c0,0,0,0,0,0l0,0.1l0,0
		C23.1,52.9,22.3,53.9,21.3,55L21.3,55z M30.9,55H31l-0.1-0.3c-0.7-2.1-0.8-5-0.8-6.7C30,50.6,30,52.6,30.9,55L30.9,55z M31.4,55
		h5.2c-0.5-0.7-0.9-1.5-1.3-2.2c-0.6-1.2-2.1-2.6-3.5-2.1c-0.4,0.1-0.7,0.4-0.8,0.9C30.8,52.3,31,53.5,31.4,55L31.4,55z M27,19.9
		l0-7l-0.9-0.4c0.3,0.3,0.7,0.9,0.7,1.6L26.7,20l0,0C26.8,20,26.9,19.9,27,19.9L27,19.9z M29,19.5L29,19.5L29,19.5
		C29.1,19.5,29.1,19.5,29,19.5L29,19.5l0.1-2.1L29,19.5L29,19.5L29,19.5z M25.8,12.7c0,0-0.1,0.1-0.1,0.1c0,0.1,0,0.2,0,0.3
		c0.4,0.2,0.6,0.4,0.8,0.8C26.4,13.2,26,13,25.8,12.7L25.8,12.7z M25.7,12.4c0-0.1,0-0.3,0-0.4c0.1,0,0.2,0,0.3,0c0,0.1,0,0.1,0,0.2
		c0.3-0.3,0.7-0.5,1-0.6l0-0.5l0.3,0c0,0.2,0,0.3,0,0.4c0.7-0.3,1.4-0.4,2.1-0.3l0.1-0.1l0.3,0l0,0.2c0.5,0.1,1,0.3,1.5,0.5
		c0-0.1,0-0.1,0-0.2l0.3,0l0,0.4c0.2,0.2,0.4,0.3,0.6,0.5l0-0.3c-0.2-1.1-1.2-1.7-2.2-1.8c-0.2,0-0.3,0-0.5-0.1v0l-0.1,0
		c-0.5,0-1,0-1.5,0.1c-0.9,0.2-1.7,0.6-2.1,1.5C25.6,12,25.6,12.2,25.7,12.4C25.7,12.4,25.7,12.4,25.7,12.4L25.7,12.4z M32,12.8
		c-0.2-0.2-0.4-0.4-0.6-0.5c-0.2,0.3-0.3,0.4-0.3,0.6L32,12.8L32,12.8z M30.9,13.2c0,0,0,0.1,0,0.2L30.9,13.2L30.9,13.2z M29.1,12.5
		l0.1-0.6l-0.1,0.2V12.5L29.1,12.5z M30.1,10c-0.1-0.1-0.3-0.1-0.4-0.2c-0.1,0-0.2,0-0.3,0l0,0.1C29.6,9.9,29.8,9.9,30.1,10L30.1,10
		z M29,9.9c0,0,0-0.1,0-0.1c-0.3,0-0.7,0-1,0.1h0v0C28.4,9.9,28.7,9.9,29,9.9L29,9.9z M27.8,10L27.8,10L27.8,10L27.8,10L27.8,10z
		 M27.9,5c0.3-0.1,0.5-0.1,0.8-0.2c0.1,0,0.1,0,0.2,0c0-0.8-0.1-1.7-0.1-2.5c0-0.3-0.1-0.5-0.5-0.3C28.1,2,28.1,2.1,28,2.3L27.9,5
		L27.9,5z M29.1,4.8L29.1,4.8c0-0.8,0.1-1.7,0.1-2.6c0-0.4,0.1-0.6,0.6-0.5c0,0,0,0,0-0.1c-0.2-0.4-1.4-0.5-1.8,0c0,0,0,0.1,0,0.1
		c0.3-0.3,0.6-0.3,0.8-0.1C29,1.9,29,2,29,2.2L29.1,4.8L29.1,4.8z M29.4,4.9c0.2,0,0.5,0.1,0.7,0.2c0-0.8-0.1-1.7-0.2-2.5
		c-0.1-0.5-0.5-0.7-0.5-0.3L29.4,4.9L29.4,4.9z M29.6,1L29.6,1c0,0,0.1,0.1,0.1,0.1v0.1c0,0-0.1,0-0.1-0.1V1L29.6,1z M29.3,0.8v0.3
		c0,0-0.1,0-0.1,0V0.7C29.2,0.7,29.3,0.8,29.3,0.8L29.3,0.8z M28.9,0.7v0.4c-0.1,0-0.2,0-0.2,0V0.7C28.8,0.7,28.8,0.7,28.9,0.7
		L28.9,0.7z M28.4,0.8v0.3c0,0-0.1,0-0.1,0V0.9L28.4,0.8L28.4,0.8z M30.6,10.1V8.8c-0.1-0.1-0.1-0.2-0.2-0.2l0,1.3
		C30.5,10,30.5,10,30.6,10.1L30.6,10.1z M30.6,8.5V7.6c0.1-0.1,0.2-0.2,0.3-0.3l0,0c-0.1-0.2-0.2-0.4-0.4-0.5L30.3,7l0,1.3
		C30.4,8.4,30.5,8.4,30.6,8.5L30.6,8.5z M31,6.9L31,6.9c0.4-1.8-2.8-2.4-4.1-1c-0.2,0.3-0.3,0.4-0.3,0.6v0c0.1,0,0.2,0,0.3,0l0,0.2
		c0.2-0.2,0.4-0.3,0.7-0.4V5.9h0.2l0,0.3C28.2,6.1,28.7,6,29.1,6l0-0.4c0.1,0,0.2,0,0.3,0l0,0.4c0.1,0,0.2,0,0.3,0
		c0.2,0,0.5,0.1,0.7,0.3l0-0.2c0.1,0,0.2,0,0.2,0l0,0.4C30.8,6.7,30.9,6.8,31,6.9L31,6.9z M26.7,7.4c0.1,0,0.2,0.1,0.3,0.4l0-0.5
		l-0.2-0.2C26.8,7.3,26.8,7.3,26.7,7.4L26.7,7.4z M30.1,9.7l0-1.3c-0.1-0.1-0.2-0.1-0.3-0.1c-0.1,0-0.3-0.1-0.5-0.1l0,1.3
		c0.1,0,0.1,0,0.2,0C29.7,9.6,29.9,9.6,30.1,9.7L30.1,9.7z M30.1,8.1l0-1.3l0.3-0.3c-0.2-0.1-0.3-0.2-0.5-0.2
		c-0.2,0-0.3-0.1-0.5-0.1l-0.1,0.2l0,0.4l0,1c0.1,0,0.2,0,0.3,0C29.8,8,29.9,8.1,30.1,8.1L30.1,8.1z M29,9.5c0-0.4,0-0.9,0-1.3
		c-0.3,0-0.6,0-0.9,0.1c0,0.4,0,0.9,0,1.3C28.4,9.5,28.7,9.5,29,9.5L29,9.5z M29,7.9c0-0.3,0-0.7,0-1.1l0-0.5l0-0.1
		c-0.4,0-0.7,0-1,0.2l0.1,0.3c0,0.4,0,0.9,0,1.3C28.4,8,28.7,7.9,29,7.9L29,7.9z M27.8,9.7l0-1.3c-0.2,0.1-0.4,0.2-0.5,0.3
		c0,0.4,0,0.8,0,1.2C27.4,9.9,27.6,9.8,27.8,9.7L27.8,9.7z M27.8,8.1l0-1.3l-0.1-0.3c-0.2,0.1-0.4,0.2-0.6,0.4l0.3,0.3
		c0,0.4,0,0.8,0,1.2C27.5,8.3,27.6,8.2,27.8,8.1L27.8,8.1z"/>
	<path class="st3" d="M75.6,6h4.9V1.6h1.6v11.2h-1.6V7.6h-4.9v5.3H74V1.6h1.6V6L75.6,6z M135.3,19.7c0.6-0.4,1.2-0.7,1.8-1.1
		c-2-3.4-6.8-3.1-8,0.4c-0.2,0.6-0.2,1.1-0.1,1.7c0.5,2.6,3.1,2.8,4.8,3.8c2.2,1.1,1.8,4.1-0.5,4.5c-1.3,0.2-2.8-0.5-2.9-2.6
		c-0.7,0.2-1.5,0.3-2.2,0.5c0.4,1.8,1,3.5,3.4,4.1c1.1,0.3,2.2,0.1,3.2-0.4c1.3-0.6,2.2-1.7,2.5-3.7c0.2-2.3-1.2-3.7-3.1-4.5
		c-0.6-0.3-1.3-0.5-1.9-0.8c-0.5-0.2-0.8-0.5-1-0.8c-0.3-0.4-0.3-1.1,0-1.5c0.2-0.4,0.7-0.7,1.2-0.9
		C133.4,18.1,134.6,18.3,135.3,19.7L135.3,19.7z M77.7,55.3l10.3-22L98,55.3l-3.4,0l-2.2-5.1l-8.9,0l-2.3,5.1
		C81.1,55.3,77.7,55.4,77.7,55.3L77.7,55.3z M88,40.3l-3.2,7.1l6.3,0L88,40.3L88,40.3z M65.7,34.5v20.8h10.6l1.3-3l-8.8-0.1V34.5
		H65.7L65.7,34.5z M102.2,42.6h9.1v-8.1h3v20.8h-3v-9.8h-9.1v9.8h-3V34.5h3V42.6L102.2,42.6z M156.1,52.4h8.3v2.9h-8.3h-3.1v-2.9v-7
		v-2.9v-5.1v-2.9v0h11.5v2.9h-8.3v5.1h7.4v2.9h-7.4V52.4L156.1,52.4z M145.6,34.9c-1.4-0.3-2.9-0.4-4.3-0.4l-2.8,0
		c0,6.9,0,13.8,0,20.7c1.1,0,2.1,0,3.1,0c0-2.8,0-5.7,0-8.5c0.1,0,0.4,0,0.6,0c2,2.8,4,5.7,6,8.5c1.3,0,2.4,0,3.7,0
		c-2.1-2.9-4.2-5.9-6.4-8.8c2.5-0.7,4.1-2.4,4.5-5.1C150.3,38.8,149.3,36,145.6,34.9L145.6,34.9z M146.2,38.7
		c-0.9-1-2.6-1.3-4.7-1.1c0,2.2,0,4.4,0,6.5c1.9,0,3.6-0.1,4.6-1.2C147.2,41.8,147.3,39.8,146.2,38.7L146.2,38.7z M126.2,34.5
		c5.7,0,10.4,4.6,10.4,10.3c0,5.7-4.6,10.3-10.4,10.3c-5.7,0-10.4-4.6-10.4-10.3C115.9,39.1,120.5,34.5,126.2,34.5L126.2,34.5z
		 M126.2,37.4c4.1,0,7.5,3.3,7.5,7.5c0,4.1-3.3,7.5-7.5,7.5c-4.1,0-7.5-3.3-7.5-7.5C118.8,40.7,122.1,37.4,126.2,37.4L126.2,37.4z
		 M182.8,16.5h2.2h5v2h-5V22h4.8v2H185v6.8h-2.2V24v-2v-3.5V16.5L182.8,16.5z M174.3,16.4c4,0,7.2,3.2,7.2,7.2c0,4-3.2,7.2-7.2,7.2
		c-4,0-7.2-3.2-7.2-7.2C167,19.6,170.3,16.4,174.3,16.4L174.3,16.4z M174.3,18.4c2.9,0,5.2,2.3,5.2,5.2c0,2.9-2.3,5.2-5.2,5.2
		c-2.9,0-5.2-2.3-5.2-5.2C169,20.7,171.4,18.4,174.3,18.4L174.3,18.4z M154,16.5c-0.8,0-1.7,0-2.5,0c1.6,2.7,3.1,5.4,4.7,8.1l0,6.2
		l2.1,0c0-2.1,0-4,0-6.1l4.7-8.1h-2.5c-1.1,1.9-2.2,3.8-3.3,5.7C156.1,20.4,155.1,18.4,154,16.5L154,16.5z M142.2,16.5h8.7v2h-3.3
		v12.3h-2.1V18.5h-3.3V16.5L142.2,16.5z M139,16.5h2.2v14.3H139V16.5L139,16.5z M123.4,16.8c-1-0.2-2-0.3-3-0.3l-2,0
		c0,4.8,0,9.5,0,14.3c0.7,0,1.4,0,2.2,0c0-2,0-3.9,0-5.9c0.1,0,0.3,0,0.4,0c1.4,2,2.7,3.9,4.1,5.9c0.9,0,1.7,0,2.6,0
		c-1.5-2-2.9-4.1-4.4-6.1c1.8-0.5,2.9-1.7,3.1-3.5C126.7,19.5,126,17.5,123.4,16.8L123.4,16.8z M123.9,19.3
		c-0.6-0.7-1.8-0.9-3.3-0.8c0,1.5,0,3,0,4.6c1.3,0,2.5-0.1,3.2-0.8C124.6,21.5,124.6,20.1,123.9,19.3L123.9,19.3z M110.8,28.8h5.8v2
		h-5.8h-2.1v-2V24v-2v-3.5v-2l0,0h7.9v2h-5.8V22h5.6v2h-5.6V28.8L110.8,28.8z M97.5,16.5l-2.3,0l6.3,15.3l6.4-15.4l-2.4,0l-4,9.9
		L97.5,16.5L97.5,16.5z M91.9,16.5H94v14.3h-2.2V16.5L91.9,16.5z M77.8,15.6c0,5.1,0,10.2,0,15.3c0.7,0,1.4,0,2.2,0
		c0-3.3,0-6.7,0-10c3.5,3.7,7,7.3,10.4,11c0-5.1,0-10.1,0-15.2c-0.7,0-1.5,0-2.2,0c0,3.3,0,6.6,0,9.9C84.7,22.8,81.2,19.2,77.8,15.6
		L77.8,15.6z M67.8,16.5h-2.1c0,3.2,0,6.5,0,9.7c0.3,2,1.2,3.3,2.3,4c0.9,0.6,2,0.9,3.1,0.9c1.6,0,3.1-0.7,4.1-2
		c0.8-1.1,1.1-2.3,1.1-3.6v-9h-2.2c0,3.2,0,5.9,0,9.2c0.1,2.6-2.1,3.4-3.2,3.4c-2.3-0.1-3.1-1.7-3.1-3.7V16.5L67.8,16.5z M65.6,1.6
		h6.8v1.6h-2.6v9.6h-1.6V3.2h-2.6V1.6L65.6,1.6z M85.4,11.3h4.5v1.6h-4.5h-1.6v-1.6V7.5V5.9V3.2V1.6v0h6.2v1.6h-4.5v2.7h4.4v1.6
		h-4.4V11.3L85.4,11.3z"/>
</g>
</svg>
